# xmcd CD database file
#
# Track frame offsets:
#	150
#	14192
#	28312
#	49006
#	71598
#	87278
#	103981
#	118879
#	137982
#	154132
#	166883
#	187316
#	206642
#
# Disc length: 3062 seconds
#
# Revision: 0
# Processed by: cddbd v1.5.2PL0 Copyright (c) Steve Scherf et al.
# Submitted via: CDex 1.51
#
DISCID=ca0bf40d
DTITLE=Bublé, Michael - Call Me Irresponsible
DYEAR=2007
DGENRE=Jazz
TTITLE0=Michael Buble - The Best Is Yet To Come
TTITLE1=Michael Buble - It Had Better Be Tonight (Megl
TTITLE2=Michael Buble - Me And Mrs. Jones
TTITLE3=Michael Buble - I'm Your Man
TTITLE4=Michael Buble - Comin' Home Baby (Duet With Bo
TTITLE5=Michael Buble - Lost
TTITLE6=Michael Buble - Call Me Irrespobsible
TTITLE7=Michael Buble - Wonderful Tonight (Duet With I
TTITLE8=Michael Buble - Everything
TTITLE9=Michael Buble - I've Got The World On A String
TTITLE10=Michael Buble - Always On My Mind
TTITLE11=Michael Buble - That's Life
TTITLE12=Michael Buble - Dream
EXTD=YEAR: 2007
EXTT0=
EXTT1=
EXTT2=
EXTT3=
EXTT4=
EXTT5=
EXTT6=
EXTT7=
EXTT8=
EXTT9=
EXTT10=
EXTT11=
EXTT12=
PLAYORDER=
